<mxfile host="app.diagrams.net" modified="2023-12-20T15:07:02.992Z" agent="Mozilla/5.0 (Windows NT 10.0; Win64; x64; rv:120.0) Gecko/20100101 Firefox/120.0" etag="Cti7m8kh4eh8UHHGkBRi" version="22.1.9" type="github">
  <diagram name="Page-1" id="c4acf3e9-155e-7222-9cf6-157b1a14988f">
    <mxGraphModel dx="3735" dy="2368" grid="1" gridSize="10" guides="1" tooltips="1" connect="1" arrows="1" fold="1" page="1" pageScale="1" pageWidth="850" pageHeight="1100" background="none" math="0" shadow="0">
      <root>
        <mxCell id="0" />
        <mxCell id="1" parent="0" />
        <mxCell id="GiUvbHlnb9BjUoea5KkQ-26" value="&lt;div&gt;TileLoader&lt;/div&gt;&lt;div&gt;&lt;br&gt;&lt;/div&gt;" style="swimlane;fontStyle=1;align=center;verticalAlign=top;childLayout=stackLayout;horizontal=1;startSize=26;horizontalStack=0;resizeParent=1;resizeParentMax=0;resizeLast=0;collapsible=1;marginBottom=0;whiteSpace=wrap;html=1;" parent="1" vertex="1">
          <mxGeometry x="500.0029581538133" y="-559.9996141310419" width="990" height="164" as="geometry" />
        </mxCell>
        <mxCell id="GiUvbHlnb9BjUoea5KkQ-28" value="- chunks: std::array&amp;lt;Chunk*, NUMBER_OF_CHUNKS&amp;gt;" style="text;strokeColor=none;fillColor=none;align=left;verticalAlign=top;spacingLeft=4;spacingRight=4;overflow=hidden;rotatable=0;points=[[0,0.5],[1,0.5]];portConstraint=eastwest;whiteSpace=wrap;html=1;" parent="GiUvbHlnb9BjUoea5KkQ-26" vertex="1">
          <mxGeometry y="26" width="990" height="26" as="geometry" />
        </mxCell>
        <mxCell id="GiUvbHlnb9BjUoea5KkQ-31" value="- numberOfActiveChunks: const uint" style="text;strokeColor=none;fillColor=none;align=left;verticalAlign=top;spacingLeft=4;spacingRight=4;overflow=hidden;rotatable=0;points=[[0,0.5],[1,0.5]];portConstraint=eastwest;whiteSpace=wrap;html=1;" parent="GiUvbHlnb9BjUoea5KkQ-26" vertex="1">
          <mxGeometry y="52" width="990" height="26" as="geometry" />
        </mxCell>
        <mxCell id="GiUvbHlnb9BjUoea5KkQ-40" value="" style="line;strokeWidth=1;fillColor=none;align=left;verticalAlign=middle;spacingTop=-1;spacingLeft=3;spacingRight=3;rotatable=0;labelPosition=right;points=[];portConstraint=eastwest;strokeColor=inherit;" parent="GiUvbHlnb9BjUoea5KkQ-26" vertex="1">
          <mxGeometry y="78" width="990" height="8" as="geometry" />
        </mxCell>
        <mxCell id="GiUvbHlnb9BjUoea5KkQ-41" value="+ Init(): void" style="text;strokeColor=none;fillColor=none;align=left;verticalAlign=top;spacingLeft=4;spacingRight=4;overflow=hidden;rotatable=0;points=[[0,0.5],[1,0.5]];portConstraint=eastwest;whiteSpace=wrap;html=1;" parent="GiUvbHlnb9BjUoea5KkQ-26" vertex="1">
          <mxGeometry y="86" width="990" height="26" as="geometry" />
        </mxCell>
        <mxCell id="GiUvbHlnb9BjUoea5KkQ-127" value="+ DrawChunks(): void" style="text;strokeColor=none;fillColor=none;align=left;verticalAlign=top;spacingLeft=4;spacingRight=4;overflow=hidden;rotatable=0;points=[[0,0.5],[1,0.5]];portConstraint=eastwest;whiteSpace=wrap;html=1;" parent="GiUvbHlnb9BjUoea5KkQ-26" vertex="1">
          <mxGeometry y="112" width="990" height="26" as="geometry" />
        </mxCell>
        <mxCell id="GiUvbHlnb9BjUoea5KkQ-44" value="+ Update(deltaTime:float): void" style="text;strokeColor=none;fillColor=none;align=left;verticalAlign=top;spacingLeft=4;spacingRight=4;overflow=hidden;rotatable=0;points=[[0,0.5],[1,0.5]];portConstraint=eastwest;whiteSpace=wrap;html=1;" parent="GiUvbHlnb9BjUoea5KkQ-26" vertex="1">
          <mxGeometry y="138" width="990" height="26" as="geometry" />
        </mxCell>
        <mxCell id="GiUvbHlnb9BjUoea5KkQ-51" value="Game" style="swimlane;fontStyle=1;align=center;verticalAlign=top;childLayout=stackLayout;horizontal=1;startSize=26;horizontalStack=0;resizeParent=1;resizeParentMax=0;resizeLast=0;collapsible=1;marginBottom=0;whiteSpace=wrap;html=1;" parent="1" vertex="1">
          <mxGeometry x="480.0029581538133" y="-852.9996141310419" width="990" height="112" as="geometry" />
        </mxCell>
        <mxCell id="GiUvbHlnb9BjUoea5KkQ-52" value="+ tileDrawer: TileLoader" style="text;strokeColor=none;fillColor=none;align=left;verticalAlign=top;spacingLeft=4;spacingRight=4;overflow=hidden;rotatable=0;points=[[0,0.5],[1,0.5]];portConstraint=eastwest;whiteSpace=wrap;html=1;" parent="GiUvbHlnb9BjUoea5KkQ-51" vertex="1">
          <mxGeometry y="26" width="990" height="26" as="geometry" />
        </mxCell>
        <mxCell id="GiUvbHlnb9BjUoea5KkQ-65" value="" style="line;strokeWidth=1;fillColor=none;align=left;verticalAlign=middle;spacingTop=-1;spacingLeft=3;spacingRight=3;rotatable=0;labelPosition=right;points=[];portConstraint=eastwest;strokeColor=inherit;" parent="GiUvbHlnb9BjUoea5KkQ-51" vertex="1">
          <mxGeometry y="52" width="990" height="8" as="geometry" />
        </mxCell>
        <mxCell id="GiUvbHlnb9BjUoea5KkQ-67" value="+ SetJumpInput(jumpInput: bool): void" style="text;strokeColor=none;fillColor=none;align=left;verticalAlign=top;spacingLeft=4;spacingRight=4;overflow=hidden;rotatable=0;points=[[0,0.5],[1,0.5]];portConstraint=eastwest;whiteSpace=wrap;html=1;" parent="GiUvbHlnb9BjUoea5KkQ-51" vertex="1">
          <mxGeometry y="60" width="990" height="26" as="geometry" />
        </mxCell>
        <mxCell id="GiUvbHlnb9BjUoea5KkQ-68" value="+ SetInput(input: int2): void" style="text;strokeColor=none;fillColor=none;align=left;verticalAlign=top;spacingLeft=4;spacingRight=4;overflow=hidden;rotatable=0;points=[[0,0.5],[1,0.5]];portConstraint=eastwest;whiteSpace=wrap;html=1;" parent="GiUvbHlnb9BjUoea5KkQ-51" vertex="1">
          <mxGeometry y="86" width="990" height="26" as="geometry" />
        </mxCell>
        <mxCell id="GiUvbHlnb9BjUoea5KkQ-76" value="1" style="endArrow=open;html=1;endSize=12;startArrow=diamondThin;startSize=14;startFill=0;edgeStyle=orthogonalEdgeStyle;align=left;verticalAlign=bottom;rounded=0;" parent="1" source="GiUvbHlnb9BjUoea5KkQ-51" target="GiUvbHlnb9BjUoea5KkQ-26" edge="1">
          <mxGeometry x="-1" y="3" relative="1" as="geometry">
            <mxPoint x="1020" y="-460" as="sourcePoint" />
            <mxPoint x="1180" y="-460" as="targetPoint" />
          </mxGeometry>
        </mxCell>
        <mxCell id="RWAmsVfRH6jWhoHNJt9g-38" style="edgeStyle=orthogonalEdgeStyle;shape=connector;rounded=0;orthogonalLoop=1;jettySize=auto;html=1;labelBackgroundColor=default;strokeColor=default;align=center;verticalAlign=middle;fontFamily=Helvetica;fontSize=11;fontColor=default;endArrow=classic;endFill=1;endSize=16;" edge="1" parent="1" source="GiUvbHlnb9BjUoea5KkQ-79" target="RWAmsVfRH6jWhoHNJt9g-11">
          <mxGeometry relative="1" as="geometry" />
        </mxCell>
        <mxCell id="GiUvbHlnb9BjUoea5KkQ-79" value="Chunk" style="swimlane;fontStyle=1;align=center;verticalAlign=top;childLayout=stackLayout;horizontal=1;startSize=26;horizontalStack=0;resizeParent=1;resizeParentMax=0;resizeLast=0;collapsible=1;marginBottom=0;whiteSpace=wrap;html=1;" parent="1" vertex="1">
          <mxGeometry x="-425" y="-360" width="510" height="190" as="geometry" />
        </mxCell>
        <mxCell id="GiUvbHlnb9BjUoea5KkQ-80" value="- modelShader: Shader*" style="text;strokeColor=none;fillColor=none;align=left;verticalAlign=top;spacingLeft=4;spacingRight=4;overflow=hidden;rotatable=0;points=[[0,0.5],[1,0.5]];portConstraint=eastwest;whiteSpace=wrap;html=1;" parent="GiUvbHlnb9BjUoea5KkQ-79" vertex="1">
          <mxGeometry y="26" width="510" height="26" as="geometry" />
        </mxCell>
        <mxCell id="GiUvbHlnb9BjUoea5KkQ-89" value="- position: glm::vec3" style="text;strokeColor=none;fillColor=none;align=left;verticalAlign=top;spacingLeft=4;spacingRight=4;overflow=hidden;rotatable=0;points=[[0,0.5],[1,0.5]];portConstraint=eastwest;whiteSpace=wrap;html=1;" parent="GiUvbHlnb9BjUoea5KkQ-79" vertex="1">
          <mxGeometry y="52" width="510" height="26" as="geometry" />
        </mxCell>
        <mxCell id="GiUvbHlnb9BjUoea5KkQ-90" value="- tiles: std::array&amp;lt;Tile, TILES_PER_CHUNK&amp;gt; ;" style="text;strokeColor=none;fillColor=none;align=left;verticalAlign=top;spacingLeft=4;spacingRight=4;overflow=hidden;rotatable=0;points=[[0,0.5],[1,0.5]];portConstraint=eastwest;whiteSpace=wrap;html=1;" parent="GiUvbHlnb9BjUoea5KkQ-79" vertex="1">
          <mxGeometry y="78" width="510" height="26" as="geometry" />
        </mxCell>
        <mxCell id="GiUvbHlnb9BjUoea5KkQ-92" value="" style="line;strokeWidth=1;fillColor=none;align=left;verticalAlign=middle;spacingTop=-1;spacingLeft=3;spacingRight=3;rotatable=0;labelPosition=right;points=[];portConstraint=eastwest;strokeColor=inherit;" parent="GiUvbHlnb9BjUoea5KkQ-79" vertex="1">
          <mxGeometry y="104" width="510" height="8" as="geometry" />
        </mxCell>
        <mxCell id="GiUvbHlnb9BjUoea5KkQ-95" value="+ Translate(pos: glm::vec3): void" style="text;strokeColor=none;fillColor=none;align=left;verticalAlign=top;spacingLeft=4;spacingRight=4;overflow=hidden;rotatable=0;points=[[0,0.5],[1,0.5]];portConstraint=eastwest;whiteSpace=wrap;html=1;" parent="GiUvbHlnb9BjUoea5KkQ-79" vertex="1">
          <mxGeometry y="112" width="510" height="26" as="geometry" />
        </mxCell>
        <mxCell id="GiUvbHlnb9BjUoea5KkQ-96" value="+ LoadTile(index: size_t , path: const char*,&amp;nbsp; pos: glm::vec3);: void" style="text;strokeColor=none;fillColor=none;align=left;verticalAlign=top;spacingLeft=4;spacingRight=4;overflow=hidden;rotatable=0;points=[[0,0.5],[1,0.5]];portConstraint=eastwest;whiteSpace=wrap;html=1;" parent="GiUvbHlnb9BjUoea5KkQ-79" vertex="1">
          <mxGeometry y="138" width="510" height="26" as="geometry" />
        </mxCell>
        <mxCell id="GiUvbHlnb9BjUoea5KkQ-97" value="+ Draw(): void" style="text;strokeColor=none;fillColor=none;align=left;verticalAlign=top;spacingLeft=4;spacingRight=4;overflow=hidden;rotatable=0;points=[[0,0.5],[1,0.5]];portConstraint=eastwest;whiteSpace=wrap;html=1;" parent="GiUvbHlnb9BjUoea5KkQ-79" vertex="1">
          <mxGeometry y="164" width="510" height="26" as="geometry" />
        </mxCell>
        <mxCell id="RWAmsVfRH6jWhoHNJt9g-40" style="edgeStyle=orthogonalEdgeStyle;shape=connector;rounded=0;orthogonalLoop=1;jettySize=auto;html=1;labelBackgroundColor=default;strokeColor=default;align=center;verticalAlign=middle;fontFamily=Helvetica;fontSize=11;fontColor=default;endArrow=block;endFill=0;endSize=16;" edge="1" parent="1" source="GiUvbHlnb9BjUoea5KkQ-102" target="RWAmsVfRH6jWhoHNJt9g-1">
          <mxGeometry relative="1" as="geometry" />
        </mxCell>
        <mxCell id="GiUvbHlnb9BjUoea5KkQ-102" value="Ground Tile" style="swimlane;fontStyle=1;align=center;verticalAlign=top;childLayout=stackLayout;horizontal=1;startSize=26;horizontalStack=0;resizeParent=1;resizeParentMax=0;resizeLast=0;collapsible=1;marginBottom=0;whiteSpace=wrap;html=1;" parent="1" vertex="1">
          <mxGeometry x="-50" y="-840" width="450" height="86" as="geometry" />
        </mxCell>
        <mxCell id="GiUvbHlnb9BjUoea5KkQ-105" value="- gameObject: GameObject" style="text;strokeColor=none;fillColor=none;align=left;verticalAlign=top;spacingLeft=4;spacingRight=4;overflow=hidden;rotatable=0;points=[[0,0.5],[1,0.5]];portConstraint=eastwest;whiteSpace=wrap;html=1;" parent="GiUvbHlnb9BjUoea5KkQ-102" vertex="1">
          <mxGeometry y="26" width="450" height="26" as="geometry" />
        </mxCell>
        <mxCell id="GiUvbHlnb9BjUoea5KkQ-115" value="" style="line;strokeWidth=1;fillColor=none;align=left;verticalAlign=middle;spacingTop=-1;spacingLeft=3;spacingRight=3;rotatable=0;labelPosition=right;points=[];portConstraint=eastwest;strokeColor=inherit;" parent="GiUvbHlnb9BjUoea5KkQ-102" vertex="1">
          <mxGeometry y="52" width="450" height="8" as="geometry" />
        </mxCell>
        <mxCell id="GiUvbHlnb9BjUoea5KkQ-116" value="/+ Init(path: const char*, glm::vec3:pos): void" style="text;strokeColor=none;fillColor=none;align=left;verticalAlign=top;spacingLeft=4;spacingRight=4;overflow=hidden;rotatable=0;points=[[0,0.5],[1,0.5]];portConstraint=eastwest;whiteSpace=wrap;html=1;" parent="GiUvbHlnb9BjUoea5KkQ-102" vertex="1">
          <mxGeometry y="60" width="450" height="26" as="geometry" />
        </mxCell>
        <mxCell id="GiUvbHlnb9BjUoea5KkQ-125" value="1..*" style="endArrow=open;html=1;endSize=12;startArrow=diamondThin;startSize=14;startFill=1;edgeStyle=orthogonalEdgeStyle;align=left;verticalAlign=bottom;rounded=0;" parent="1" source="GiUvbHlnb9BjUoea5KkQ-79" target="GiUvbHlnb9BjUoea5KkQ-102" edge="1">
          <mxGeometry x="-0.9317" y="-20" relative="1" as="geometry">
            <mxPoint x="-100" y="-340" as="sourcePoint" />
            <mxPoint x="60" y="-340" as="targetPoint" />
            <mxPoint as="offset" />
          </mxGeometry>
        </mxCell>
        <mxCell id="GiUvbHlnb9BjUoea5KkQ-126" value="1..*" style="endArrow=open;html=1;endSize=12;startArrow=diamondThin;startSize=14;startFill=1;edgeStyle=orthogonalEdgeStyle;align=left;verticalAlign=bottom;rounded=0;" parent="1" source="GiUvbHlnb9BjUoea5KkQ-26" target="GiUvbHlnb9BjUoea5KkQ-79" edge="1">
          <mxGeometry x="-0.7386" y="29" relative="1" as="geometry">
            <mxPoint x="180" y="-380" as="sourcePoint" />
            <mxPoint x="340" y="-380" as="targetPoint" />
            <Array as="points">
              <mxPoint x="995" y="-280" />
            </Array>
            <mxPoint as="offset" />
          </mxGeometry>
        </mxCell>
        <mxCell id="RWAmsVfRH6jWhoHNJt9g-1" value="Tile" style="swimlane;fontStyle=1;align=center;verticalAlign=top;childLayout=stackLayout;horizontal=1;startSize=26;horizontalStack=0;resizeParent=1;resizeParentMax=0;resizeLast=0;collapsible=1;marginBottom=0;whiteSpace=wrap;html=1;" vertex="1" parent="1">
          <mxGeometry x="-710" y="-840" width="450" height="164" as="geometry" />
        </mxCell>
        <mxCell id="RWAmsVfRH6jWhoHNJt9g-2" value="- rigidBody: btRigidBody*" style="text;strokeColor=none;fillColor=none;align=left;verticalAlign=top;spacingLeft=4;spacingRight=4;overflow=hidden;rotatable=0;points=[[0,0.5],[1,0.5]];portConstraint=eastwest;whiteSpace=wrap;html=1;" vertex="1" parent="RWAmsVfRH6jWhoHNJt9g-1">
          <mxGeometry y="26" width="450" height="26" as="geometry" />
        </mxCell>
        <mxCell id="RWAmsVfRH6jWhoHNJt9g-4" value="- gameObject: GameObject" style="text;strokeColor=none;fillColor=none;align=left;verticalAlign=top;spacingLeft=4;spacingRight=4;overflow=hidden;rotatable=0;points=[[0,0.5],[1,0.5]];portConstraint=eastwest;whiteSpace=wrap;html=1;" vertex="1" parent="RWAmsVfRH6jWhoHNJt9g-1">
          <mxGeometry y="52" width="450" height="26" as="geometry" />
        </mxCell>
        <mxCell id="RWAmsVfRH6jWhoHNJt9g-5" value="- initialPosition: glm::vec3" style="text;strokeColor=none;fillColor=none;align=left;verticalAlign=top;spacingLeft=4;spacingRight=4;overflow=hidden;rotatable=0;points=[[0,0.5],[1,0.5]];portConstraint=eastwest;whiteSpace=wrap;html=1;" vertex="1" parent="RWAmsVfRH6jWhoHNJt9g-1">
          <mxGeometry y="78" width="450" height="26" as="geometry" />
        </mxCell>
        <mxCell id="RWAmsVfRH6jWhoHNJt9g-39" value="- modelId: const char*" style="text;strokeColor=none;fillColor=none;align=left;verticalAlign=top;spacingLeft=4;spacingRight=4;overflow=hidden;rotatable=0;points=[[0,0.5],[1,0.5]];portConstraint=eastwest;whiteSpace=wrap;html=1;" vertex="1" parent="RWAmsVfRH6jWhoHNJt9g-1">
          <mxGeometry y="104" width="450" height="26" as="geometry" />
        </mxCell>
        <mxCell id="RWAmsVfRH6jWhoHNJt9g-6" value="" style="line;strokeWidth=1;fillColor=none;align=left;verticalAlign=middle;spacingTop=-1;spacingLeft=3;spacingRight=3;rotatable=0;labelPosition=right;points=[];portConstraint=eastwest;strokeColor=inherit;" vertex="1" parent="RWAmsVfRH6jWhoHNJt9g-1">
          <mxGeometry y="130" width="450" height="8" as="geometry" />
        </mxCell>
        <mxCell id="RWAmsVfRH6jWhoHNJt9g-7" value="+ Init(path: const char*, glm::vec3:pos): void" style="text;strokeColor=none;fillColor=none;align=left;verticalAlign=top;spacingLeft=4;spacingRight=4;overflow=hidden;rotatable=0;points=[[0,0.5],[1,0.5]];portConstraint=eastwest;whiteSpace=wrap;html=1;" vertex="1" parent="RWAmsVfRH6jWhoHNJt9g-1">
          <mxGeometry y="138" width="450" height="26" as="geometry" />
        </mxCell>
        <mxCell id="RWAmsVfRH6jWhoHNJt9g-11" value="GroundTileFactory" style="swimlane;fontStyle=1;align=center;verticalAlign=top;childLayout=stackLayout;horizontal=1;startSize=26;horizontalStack=0;resizeParent=1;resizeParentMax=0;resizeLast=0;collapsible=1;marginBottom=0;whiteSpace=wrap;html=1;" vertex="1" parent="1">
          <mxGeometry x="-1080" y="-480" width="450" height="60" as="geometry" />
        </mxCell>
        <mxCell id="RWAmsVfRH6jWhoHNJt9g-16" value="" style="line;strokeWidth=1;fillColor=none;align=left;verticalAlign=middle;spacingTop=-1;spacingLeft=3;spacingRight=3;rotatable=0;labelPosition=right;points=[];portConstraint=eastwest;strokeColor=inherit;" vertex="1" parent="RWAmsVfRH6jWhoHNJt9g-11">
          <mxGeometry y="26" width="450" height="8" as="geometry" />
        </mxCell>
        <mxCell id="RWAmsVfRH6jWhoHNJt9g-33" value="+ GetInstance(): GroundTileFactory&amp;amp; static" style="text;strokeColor=none;fillColor=none;align=left;verticalAlign=top;spacingLeft=4;spacingRight=4;overflow=hidden;rotatable=0;points=[[0,0.5],[1,0.5]];portConstraint=eastwest;whiteSpace=wrap;html=1;" vertex="1" parent="RWAmsVfRH6jWhoHNJt9g-11">
          <mxGeometry y="34" width="450" height="26" as="geometry" />
        </mxCell>
        <mxCell id="RWAmsVfRH6jWhoHNJt9g-21" value="TileFactory" style="swimlane;fontStyle=1;align=center;verticalAlign=top;childLayout=stackLayout;horizontal=1;startSize=26;horizontalStack=0;resizeParent=1;resizeParentMax=0;resizeLast=0;collapsible=1;marginBottom=0;whiteSpace=wrap;html=1;" vertex="1" parent="1">
          <mxGeometry x="-1620" y="-540" width="450" height="164" as="geometry" />
        </mxCell>
        <mxCell id="RWAmsVfRH6jWhoHNJt9g-35" value="- models: std::unordered_map&amp;lt;const char*, StaticModel*&amp;gt;" style="text;strokeColor=none;fillColor=none;align=left;verticalAlign=top;spacingLeft=4;spacingRight=4;overflow=hidden;rotatable=0;points=[[0,0.5],[1,0.5]];portConstraint=eastwest;whiteSpace=wrap;html=1;" vertex="1" parent="RWAmsVfRH6jWhoHNJt9g-21">
          <mxGeometry y="26" width="450" height="26" as="geometry" />
        </mxCell>
        <mxCell id="RWAmsVfRH6jWhoHNJt9g-26" value="" style="line;strokeWidth=1;fillColor=none;align=left;verticalAlign=middle;spacingTop=-1;spacingLeft=3;spacingRight=3;rotatable=0;labelPosition=right;points=[];portConstraint=eastwest;strokeColor=inherit;" vertex="1" parent="RWAmsVfRH6jWhoHNJt9g-21">
          <mxGeometry y="52" width="450" height="8" as="geometry" />
        </mxCell>
        <mxCell id="RWAmsVfRH6jWhoHNJt9g-28" value="- LoadModel(path: const char*, glm::vec3:pos): StaticModel*" style="text;strokeColor=none;fillColor=none;align=left;verticalAlign=top;spacingLeft=4;spacingRight=4;overflow=hidden;rotatable=0;points=[[0,0.5],[1,0.5]];portConstraint=eastwest;whiteSpace=wrap;html=1;" vertex="1" parent="RWAmsVfRH6jWhoHNJt9g-21">
          <mxGeometry y="60" width="450" height="26" as="geometry" />
        </mxCell>
        <mxCell id="RWAmsVfRH6jWhoHNJt9g-34" value="+ CreateTileModel(path: const char*, glm::vec3:pos): void" style="text;strokeColor=none;fillColor=none;align=left;verticalAlign=top;spacingLeft=4;spacingRight=4;overflow=hidden;rotatable=0;points=[[0,0.5],[1,0.5]];portConstraint=eastwest;whiteSpace=wrap;html=1;" vertex="1" parent="RWAmsVfRH6jWhoHNJt9g-21">
          <mxGeometry y="86" width="450" height="26" as="geometry" />
        </mxCell>
        <mxCell id="RWAmsVfRH6jWhoHNJt9g-36" value="+ Draw(path: const char*, glm::vec3:pos): void" style="text;strokeColor=none;fillColor=none;align=left;verticalAlign=top;spacingLeft=4;spacingRight=4;overflow=hidden;rotatable=0;points=[[0,0.5],[1,0.5]];portConstraint=eastwest;whiteSpace=wrap;html=1;" vertex="1" parent="RWAmsVfRH6jWhoHNJt9g-21">
          <mxGeometry y="112" width="450" height="26" as="geometry" />
        </mxCell>
        <mxCell id="RWAmsVfRH6jWhoHNJt9g-30" value="+ GetModel(path: const char*): StaticModel*" style="text;strokeColor=none;fillColor=none;align=left;verticalAlign=top;spacingLeft=4;spacingRight=4;overflow=hidden;rotatable=0;points=[[0,0.5],[1,0.5]];portConstraint=eastwest;whiteSpace=wrap;html=1;" vertex="1" parent="RWAmsVfRH6jWhoHNJt9g-21">
          <mxGeometry y="138" width="450" height="26" as="geometry" />
        </mxCell>
        <mxCell id="RWAmsVfRH6jWhoHNJt9g-32" value="" style="endArrow=block;endSize=16;endFill=0;html=1;rounded=0;edgeStyle=orthogonalEdgeStyle;" edge="1" parent="1" source="RWAmsVfRH6jWhoHNJt9g-11" target="RWAmsVfRH6jWhoHNJt9g-21">
          <mxGeometry width="160" relative="1" as="geometry">
            <mxPoint x="-1050" y="-510" as="sourcePoint" />
            <mxPoint x="-890" y="-510" as="targetPoint" />
            <Array as="points">
              <mxPoint x="-1290" y="-440" />
              <mxPoint x="-1290" y="-440" />
            </Array>
          </mxGeometry>
        </mxCell>
      </root>
    </mxGraphModel>
  </diagram>
</mxfile>
